<svg width="24" height="25" viewBox="0 0 24 25" fill="none" xmlns="http://www.w3.org/2000/svg">
<path d="M12 16.5074C11.2089 16.5074 10.4355 16.2756 9.77772 15.8412C9.11992 15.4069 8.60723 14.7895 8.30448 14.0672C8.00173 13.3448 7.92252 12.55 8.07686 11.7832C8.2312 11.0164 8.61216 10.312 9.17157 9.75919C9.73098 9.20634 10.4437 8.82986 11.2196 8.67733C11.9956 8.5248 12.7998 8.60308 13.5307 8.90228C14.2616 9.20147 14.8864 9.70814 15.3259 10.3582C15.7654 11.0083 16 11.7726 16 12.5544C16 13.6028 15.5786 14.6083 14.8284 15.3496C14.0783 16.0909 13.0609 16.5074 12 16.5074ZM5.683 16.5074H1C0.734784 16.5074 0.48043 16.4033 0.292893 16.218C0.105357 16.0326 0 15.7813 0 15.5192C0.00947584 14.1001 0.531725 12.7311 1.47256 11.6591C2.41339 10.5871 3.71087 9.88257 5.131 9.67264C5.29602 9.64979 5.4642 9.66806 5.62027 9.72578C5.77633 9.7835 5.91532 9.87885 6.02461 10.0032C6.1339 10.1275 6.21003 10.2768 6.24607 10.4376C6.28212 10.5983 6.27694 10.7655 6.231 10.9238C6.07776 11.4541 6.00001 12.0029 6 12.5544C6.00029 13.4337 6.20056 14.3017 6.586 15.0942C6.6585 15.2446 6.69133 15.4107 6.68146 15.5771C6.67158 15.7434 6.61931 15.9046 6.5295 16.0456C6.4397 16.1866 6.31528 16.3029 6.16781 16.3836C6.02033 16.4644 5.8546 16.507 5.686 16.5074H5.683ZM17 24.4135H7C6.73478 24.4135 6.48043 24.3094 6.29289 24.124C6.10536 23.9387 6 23.6873 6 23.4252C6 21.8526 6.63214 20.3444 7.75736 19.2324C8.88258 18.1204 10.4087 17.4957 12 17.4957C13.5913 17.4957 15.1174 18.1204 16.2426 19.2324C17.3679 20.3444 18 21.8526 18 23.4252C18 23.6873 17.8946 23.9387 17.7071 24.124C17.5196 24.3094 17.2652 24.4135 17 24.4135ZM18 8.60137C17.2089 8.60137 16.4355 8.36953 15.7777 7.93517C15.1199 7.5008 14.6072 6.88342 14.3045 6.1611C14.0017 5.43878 13.9225 4.64396 14.0769 3.87715C14.2312 3.11033 14.6122 2.40597 15.1716 1.85313C15.731 1.30029 16.4437 0.923799 17.2196 0.771271C17.9956 0.618742 18.7998 0.697025 19.5307 0.996221C20.2616 1.29542 20.8864 1.80209 21.3259 2.45216C21.7654 3.10223 22 3.86651 22 4.64834C22 5.69675 21.5786 6.70222 20.8284 7.44356C20.0783 8.18489 19.0609 8.60137 18 8.60137ZM6 8.60137C5.20887 8.60137 4.43552 8.36953 3.77772 7.93517C3.11992 7.5008 2.60723 6.88342 2.30448 6.1611C2.00173 5.43878 1.92252 4.64396 2.07686 3.87715C2.2312 3.11033 2.61216 2.40597 3.17157 1.85313C3.73098 1.30029 4.44371 0.923799 5.21964 0.771271C5.99556 0.618742 6.79983 0.697025 7.53073 0.996221C8.26164 1.29542 8.88635 1.80209 9.32588 2.45216C9.7654 3.10223 10 3.86651 10 4.64834C10 5.69675 9.57857 6.70222 8.82843 7.44356C8.07828 8.18489 7.06087 8.60137 6 8.60137ZM23 16.5074H18.317C18.1484 16.507 17.9827 16.4644 17.8352 16.3836C17.6877 16.3029 17.5633 16.1866 17.4735 16.0456C17.3837 15.9046 17.3314 15.7434 17.3215 15.5771C17.3117 15.4107 17.3445 15.2446 17.417 15.0942C17.8014 14.3015 18.0006 13.4335 18 12.5544C17.9984 12.0027 17.9189 11.4538 17.764 10.9238C17.7178 10.765 17.7126 10.5974 17.7489 10.4361C17.7851 10.2749 17.8617 10.1252 17.9717 10.0007C18.0816 9.8763 18.2213 9.78107 18.378 9.72375C18.5348 9.66643 18.7036 9.64886 18.869 9.67264C20.2891 9.88257 21.5866 10.5871 22.5274 11.6591C23.4683 12.7311 23.9905 14.1001 24 15.5192C24 15.7813 23.8946 16.0326 23.7071 16.218C23.5196 16.4033 23.2652 16.5074 23 16.5074Z" fill="#68E3FF"/>
</svg>
